<?xml version="1.0" encoding="UTF-8"?> <svg xmlns="http://www.w3.org/2000/svg" viewBox="0 0 1140 1140"><defs><style> .cls-1 { fill: #643dd8; } .cls-2 { fill: #a4e7ec; } .cls-3 { fill: #ffebfa; } .cls-4 { fill: #17cedb; } .cls-5 { fill: #b60084; } .cls-6 { fill: #c8d1ff; } .cls-7 { fill: #fff; } .cls-8 { fill: none; } </style></defs><g id="stripes_-_back" data-name="stripes - back"><g><path class="cls-1" d="M776.55,358.5a294.77,294.77,0,0,0-417.6,0q-5.47,5.49-10.64,11.21l44.53,40.09q4.11-4.56,8.48-8.93a234.95,234.95,0,0,1,332.86,0q4.38,4.38,8.48,8.94a233.67,233.67,0,0,1,49,84.73l57-18.52a293.29,293.29,0,0,0-61.52-106.3Q782,364,776.55,358.5Z"></path><path class="cls-2" d="M921,249.28l-.17.16q8.28,9.23,16.14,18.92a474.92,474.92,0,0,1,82.86,152.07l56.42-19.82A536.39,536.39,0,0,0,966,210.16l.07-.06-1.62-1.88A536.34,536.34,0,0,0,785.33,78.63L761,133.34q11.32,5.06,22.45,10.71A474.72,474.72,0,0,1,921,249.28Z"></path><path class="cls-3" d="M124.25,397.06a475,475,0,0,1,90.28-147.78l.18.16h0l-44.51-40.07h0l-1,1A536.44,536.44,0,0,0,59,402l57,18.51Q119.8,408.72,124.25,397.06Z"></path><path class="cls-3" d="M231.84,231.41a474.71,474.71,0,0,1,142.59-98.29l-25.61-54A536.51,536.51,0,0,0,170.21,209.36l44.51,40.07Q223,240.24,231.84,231.41Z"></path><path class="cls-4" d="M567.75,212.1a353,353,0,0,1,251.16,104q6.6,6.62,12.8,13.49l44.53-40.09q-7.26-8-15-15.76a416,416,0,0,0-462.46-85.89l24.38,54.76A354.34,354.34,0,0,1,567.75,212.1Z"></path><path class="cls-5" d="M259.26,289.53A412.48,412.48,0,0,0,152.64,567.29a422.07,422.07,0,0,0,2.25,43.4l59.59-6.27a360,360,0,0,1-1.92-37.13,352.9,352.9,0,0,1,91.23-237.67Z"></path><polygon class="cls-5" points="303.79 329.62 259.26 289.53 259.26 289.53 303.79 329.62 303.79 329.62"></polygon><path class="cls-5" d="M965.38,925.31,957,917.78A517.11,517.11,0,0,1,909.63,964h17A533.74,533.74,0,0,0,965.38,925.31Z"></path><path class="cls-5" d="M966.05,924.57a531.55,531.55,0,0,0,110.88-192.88l-10.73-3.47a518.38,518.38,0,0,1-68.24,138,523.75,523.75,0,0,1-40.28,50.87c-.22.25-.45.49-.67.73l8.37,7.53Z"></path><path class="cls-5" d="M948.24,909.88l-8.38-7.55A497.79,497.79,0,0,1,873.05,964h18.21A508.2,508.2,0,0,0,948.24,909.88Z"></path><path class="cls-5" d="M948.89,909.17A509.6,509.6,0,0,0,1055,724.59l-10.74-3.47A498.62,498.62,0,0,1,940.49,901.63l-.63.7,8.38,7.55C948.46,909.64,948.68,909.41,948.89,909.17Z"></path><path class="cls-5" d="M929.86,892.1a486.27,486.27,0,0,0,37.42-47.26,480.91,480.91,0,0,0,63.36-128.1l-10.74-3.47A470.3,470.3,0,0,1,958,838.39a475.15,475.15,0,0,1-36.56,46.17l-.6.66,8.39,7.56Z"></path><path class="cls-5" d="M929.25,892.78l-8.39-7.56A474.62,474.62,0,0,1,829,964h20A485.38,485.38,0,0,0,929.25,892.78Z"></path><path class="cls-6" d="M197.5,937.5A521.91,521.91,0,0,1,47,622.07l-11.21,1.18a531.52,531.52,0,0,0,68.75,211.57A537.3,537.3,0,0,0,209.05,964h17Q211.35,951.33,197.5,937.5Z"></path><path class="cls-6" d="M213.83,921.17a500.38,500.38,0,0,1-79.26-102.94l1.25-.72a503.48,503.48,0,0,1-27.7-55.61A495.59,495.59,0,0,1,71.51,619.51l-11.23,1.18a509.39,509.39,0,0,0,65.44,201.88l-1.26.73A515.06,515.06,0,0,0,244.44,964h18.14A504.4,504.4,0,0,1,213.83,921.17Z"></path><path class="cls-6" d="M130.08,752.09A470.25,470.25,0,0,1,95.34,617l-11.23,1.18a481.42,481.42,0,0,0,35.57,138.31A489.5,489.5,0,0,0,282,960.75l6.63-9.13A475.47,475.47,0,0,1,130.08,752.09Z"></path></g></g><g id="segments_-_front" data-name="segments - front"><g><path class="cls-7" d="M152.64,567.29A416.23,416.23,0,0,1,172.78,439l-57-18.52a476,476,0,0,0-23,146.85A483.94,483.94,0,0,0,95.3,617a470.51,470.51,0,0,0,60.92,187.94l51.91-30a411,411,0,0,1-53.24-164.23A422.07,422.07,0,0,1,152.64,567.29Z"></path><path class="cls-7" d="M980.61,610.69a411,411,0,0,1-53.24,164.23A419.44,419.44,0,0,1,811.78,903.17L847,951.65A480.51,480.51,0,0,0,979.28,804.89,470.51,470.51,0,0,0,1040.2,617Z"></path></g></g><g id="Layer_5" data-name="Layer 5"><rect class="cls-8" width="1140" height="1140"></rect></g></svg> 